{"title":"Alpha and Omega 2010 R5 XViD READNFO-LKRG (BX)","uid":5901326,"size":753831368,"categoryP":"video","categoryS":"movies","magnet":"?xt=urn:btih:8b5532948e19a4b6d7f2fb66a183fe7bac5a71e3&amp;dn=Alpha+and+Omega+2010+R5+XViD+READNFO-LKRG+%28BX%29&amp;tr=udp%3A%2F%2Ftracker.openbittorrent.com%3A80&amp;tr=udp%3A%2F%2Fopen.demonii.com%3A1337&amp;tr=udp%3A%2F%2Ftracker.coppersurfer.tk%3A6969&amp;tr=udp%3A%2F%2Fexodus.desync.com%3A6969","seeders":0,"leechers":0,"uploader":"Kill3rK","files":53,"time":1287683826,"description":"Clean Scene Releases   &lt;a href=&quot; http://bitxtre.me/&quot; rel=&quot;nofollow&quot; target=&quot;_NEW&quot;&gt; http://bitxtre.me/&lt;/a&gt;\n\nThis &quot;scene&quot; release has &quot;rar files&quot;, thats how they are uploaded to &quot;top sites&quot; if and when a &quot;scene group&quot; upload to those top sites the files that are originally &quot;spread&quot; to other &quot;top sites&quot; aka &quot;affill sites&quot; can and do make there way to p2p (like here on TPB). These &quot;rar&quot; &quot;files&quot; are the safest way to download from public trackers especially if there is a &quot;sfv&quot; and an &quot;nfo&quot; file included as that indicates the release is good, while i understand that &quot;rar&quot; files double the hard drive space needed to unpack and of course seed is not an option for some of you guys, but safety is the way to go in my opinion, anyways all the words i have quoted &quot;quote&quot; please google them , then you will be better informed.\n\n\nIf You need more help understanding the scene Google it :) \n\n\n-------------------------------------------------------------------------------------\n                                   nfo\n\n\n\nscreens - &lt;a href=&quot;\nhttp://img808.imageshack.us/img808/7163/vlcsnap2010102103h49m53.png&quot; rel=&quot;nofollow&quot; target=&quot;_NEW&quot;&gt;\nhttp://img808.imageshack.us/img808/7163/vlcsnap2010102103h49m53.png&lt;/a&gt; &lt;a href=&quot;\nhttp://img185.imageshack.us/img185/3669/vlcsnap2010102103h49m25.png&quot; rel=&quot;nofollow&quot; target=&quot;_NEW&quot;&gt;\nhttp://img185.imageshack.us/img185/3669/vlcsnap2010102103h49m25.png&lt;/a&gt; &lt;a href=&quot;\nhttp://img834.imageshack.us/img834/5509/vlcsnap2010102103h52m20.png&quot; rel=&quot;nofollow&quot; target=&quot;_NEW&quot;&gt;\nhttp://img834.imageshack.us/img834/5509/vlcsnap2010102103h52m20.png&lt;/a&gt; &lt;a href=&quot;\nhttp://img196.imageshack.us/img196/341/vlcsnap2010102103h53m34.png&quot; rel=&quot;nofollow&quot; target=&quot;_NEW&quot;&gt;\nhttp://img196.imageshack.us/img196/341/vlcsnap2010102103h53m34.png&lt;/a&gt;\n\nVideo\nID : 0\nFormat : MPEG-4 Visual\nFormat profile : Simple@L3\nFormat settings, BVOP : No\nFormat settings, QPel : No\nFormat settings, GMC : No warppoints\nFormat settings, Matrix : Default (H.263)\nCodec ID : XVID\nCodec ID/Hint : XviD\nDuration : 1h 15mn\nBit rate : 1 071 Kbps\nWidth : 700 pixels\nHeight : 392 pixels\nDisplay aspect ratio : 16:9\nFrame rate : 25.000 fps\nColor space : YUV\nChroma subsampling : 4:2:0\nBit depth : 8 bits\nScan type : Progressive\nBits/(Pixel*Frame) : 0.156\nStream size : 577 MiB (80%)\nWriting library : XviD 1.2.1 (UTC 2008-12-04)\n\nAudio\nID : 1\nFormat : AC-3\nFormat/Info : Audio Coding 3\nMode extension : CM (complete main)\nCodec ID : 2000\nDuration : 1h 15mn\nBit rate mode : Constant\nBit rate : 256 Kbps\nChannel(s) : 2 channels\nChannel positions : Front: L R\nSampling rate : 48.0 KHz\nBit depth : 16 bits\nStream size : 138 MiB (19%)\nAlignment : Aligned on interleaves\nInterleave, duration : 477 ms (11.92 video frames)\nInterleave, preload duration : 960 ms\n\nREADNFO - ENGLISH CAM Audio\n\nTwo young wolves at opposite ends of their pack's social order are thrown together into a foreign land and need each other to return home, but love complicates everything.\n &lt;a href=&quot;\nhttp://www.imdb.com/title/tt1213012&quot; rel=&quot;nofollow&quot; target=&quot;_NEW&quot;&gt;\nhttp://www.imdb.com/title/tt1213012&lt;/a&gt;","torrent":{"xt":"urn:btih:8b5532948e19a4b6d7f2fb66a183fe7bac5a71e3","amp;dn":"Alpha+and+Omega+2010+R5+XViD+READNFO-LKRG+%28BX%29","amp;tr":["udp%3A%2F%2Ftracker.openbittorrent.com%3A80","udp%3A%2F%2Fopen.demonii.com%3A1337","udp%3A%2F%2Ftracker.coppersurfer.tk%3A6969","udp%3A%2F%2Fexodus.desync.com%3A6969"],"infoHash":"8b5532948e19a4b6d7f2fb66a183fe7bac5a71e3","infoHashBuffer":{"type":"Buffer","data":[139,85,50,148,142,25,164,182,215,242,251,102,161,131,254,123,172,90,113,227]},"announce":[],"urlList":[]}}